



<svg id="Layer_1" data-name="Layer 1" xmlns="http://www.w3.org/2000/svg" viewBox="0 0 374 158"><defs><style>.cls-1{fill:none;stroke:#fff;stroke-miterlimit:10;stroke-width:3px;}.cls-2{font-size:92.77px;fill:aqua;font-family:RaksanaDEMO, Raksana DEMO;}.cls-3{letter-spacing:0.04em;}.cls-4{fill:#fff;}</style></defs><path class="cls-1" d="M15.85,101.47l-.53-54.4A21.11,21.11,0,0,1,46.81,28.48L94.19,55.23a21.11,21.11,0,0,1,.35,36.56L47.69,119.45A21.11,21.11,0,0,1,15.85,101.47Z"/><text class="cls-2" transform="translate(14.78 91.67) rotate(0.53)">La<tspan class="cls-3" x="64.85" y="0">s</tspan><tspan x="90.73" y="0">glowtech</tspan></text><g id="CURVES"><path class="cls-4" d="M293.31,48a38.87,38.87,0,0,1,13.57,6.68A37.61,37.61,0,0,1,316.69,66a35.72,35.72,0,0,1,4.49,14,32.34,32.34,0,0,1-1.86,14.39,31.91,31.91,0,0,0,.87-14.26A34.15,34.15,0,0,0,315,67a35.14,35.14,0,0,0-22.57-15.08Z"/><path class="cls-4" d="M293.12,37.87A48.06,48.06,0,0,1,310.41,45a46.71,46.71,0,0,1,13,13.13,44.11,44.11,0,0,1,6.7,17,31.8,31.8,0,0,1,.49,4.55l.09,2.29c0,.76-.09,1.52-.12,2.28l-.16,2.27c-.12.75-.27,1.49-.4,2.24s-.26,1.49-.43,2.23L329,93.25,329.5,91c.13-.74.2-1.49.3-2.24s.2-1.49.28-2.24l0-2.25c0-.75.07-1.5,0-2.25l-.21-2.24a31.56,31.56,0,0,0-.72-4.42,42.7,42.7,0,0,0-7.36-16.08,44.37,44.37,0,0,0-29.36-17.5Z"/><path class="cls-4" d="M292.84,27.87a57.5,57.5,0,0,1,21,8.12A56.29,56.29,0,0,1,330,51.47a53.56,53.56,0,0,1,8.61,20.39,46.9,46.9,0,0,1-.9,21.88,46.54,46.54,0,0,0-.07-21.67,52.26,52.26,0,0,0-9.26-19.43,53.88,53.88,0,0,0-36.1-20.82Z"/></g></svg>